<svg id="Layer_1" data-name="Layer 1" xmlns="http://www.w3.org/2000/svg" viewBox="0 0 75.5 73.6"><defs><style>.cls-1{fill:#7fba00;}.cls-2{fill:#fff;stroke:#000;stroke-miterlimit:10;}.cls-3{fill:#f25022;}.cls-4{fill:#00a4ef;}.cls-5{fill:#ffb900;}</style></defs><path class="cls-1" d="M639,308.53V271.94a39.7,39.7,0,0,1,37,35l0,1.09h-36.6" transform="translate(-600.47 -271.94)"/><path class="cls-2" d="M639.5,271.5" transform="translate(-600.47 -271.94)"/><path class="cls-3" d="M637.51,308.53V271.94a39.7,39.7,0,0,0-37,35l0,1.09h36.59" transform="translate(-600.47 -271.94)"/><path class="cls-4" d="M637.53,309s0,24.33,0,36.53a39.7,39.7,0,0,1-37-35l0-1.09h36.6" transform="translate(-600.47 -271.94)"/><path class="cls-5" d="M638.93,308.94v36.59a39.7,39.7,0,0,0,37-35l0-1.09h-36.6" transform="translate(-600.47 -271.94)"/></svg>