<?xml version="1.0" encoding="utf-8"?>
<!-- Generator: Adobe Illustrator 26.1.0, SVG Export Plug-In . SVG Version: 6.00 Build 0)  -->
<svg version="1.1" id="Layer_1" xmlns="http://www.w3.org/2000/svg" xmlns:xlink="http://www.w3.org/1999/xlink" x="0px" y="0px"
	 viewBox="0 0 16 16" style="enable-background:new 0 0 16 16;" xml:space="preserve">
<style type="text/css">
	.st0{fill:#C1C8E4;}
</style>
<path class="st0" d="M4,1.5H3c-1.1,0-2,0.9-2,2V14c0,1.1,0.9,2,2,2h10c1.1,0,2-0.9,2-2V3.5c0-1.1-0.9-2-2-2h-1v1h1c0.6,0,1,0.4,1,1
	V14c0,0.6-0.4,1-1,1H3c-0.6,0-1-0.4-1-1V3.5c0-0.6,0.4-1,1-1h1V1.5z"/>
<path class="st0" d="M9.5,1C9.8,1,10,1.2,10,1.5v1C10,2.8,9.8,3,9.5,3h-3C6.2,3,6,2.8,6,2.5v-1C6,1.2,6.2,1,6.5,1H9.5z M6.5,0
	C5.7,0,5,0.7,5,1.5v1C5,3.3,5.7,4,6.5,4h3C10.3,4,11,3.3,11,2.5v-1C11,0.7,10.3,0,9.5,0H6.5z"/>
</svg>
