<?xml version="1.0" encoding="utf-8"?>
<!-- Generator: Adobe Illustrator 26.1.0, SVG Export Plug-In . SVG Version: 6.00 Build 0)  -->
<svg version="1.1" id="Layer_1" xmlns="http://www.w3.org/2000/svg" xmlns:xlink="http://www.w3.org/1999/xlink" x="0px" y="0px"
	 viewBox="0 0 16 16" style="enable-background:new 0 0 16 16;" xml:space="preserve">
<style type="text/css">
	.st0{fill:#FFFAFA;}
	.st1{fill-rule:evenodd;clip-rule:evenodd;fill:#FFFAFA;}
</style>
<path class="st0" d="M11,6c0,1.7-1.3,3-3,3S5,7.7,5,6s1.3-3,3-3S11,4.3,11,6z"/>
<path class="st1" d="M0,8c0-4.4,3.6-8,8-8s8,3.6,8,8s-3.6,8-8,8S0,12.4,0,8z M8,1C4.1,1,1,4.1,1,8c0,1.6,0.5,3.1,1.5,4.4
	C3.2,11.2,4.8,10,8,10s4.8,1.2,5.5,2.4c2.4-3,1.9-7.4-1.1-9.8C11.1,1.5,9.6,1,8,1z"/>
</svg>
